<?xml version="1.0" encoding="UTF-8"?>
<svg width="16px" height="16px" viewBox="0 0 16 16" version="1.1" xmlns="http://www.w3.org/2000/svg" xmlns:xlink="http://www.w3.org/1999/xlink">
    <!-- Generator: Sketch 58 (84663) - https://sketch.com -->
    <title>instagram</title>
    <desc>Created with Sketch.</desc>
    <g id="Webpage" stroke="none" stroke-width="1" fill="none" fill-rule="evenodd">
        <g id="Desktop-Copy" transform="translate(-220.000000, -295.000000)" fill="#404040">
            <path d="M227.493613,294.998819 L228.503643,294.998819 C230.220724,295.000357 230.514827,295.011069 231.297005,295.046758 C232.148512,295.085595 232.73006,295.220844 233.238919,295.418621 C233.76499,295.623035 234.211131,295.896581 234.655906,296.341325 C235.10065,296.7861 235.374196,297.232241 235.578642,297.758311 C235.776387,298.26717 235.911636,298.848719 235.950473,299.700226 C235.98454,300.44685 235.995849,300.748761 235.998144,302.268103 L235.998144,303.729149 C235.995849,305.24847 235.98454,305.550381 235.950473,306.297005 C235.911636,307.148512 235.776387,307.73006 235.578642,308.238919 C235.374196,308.76499 235.10065,309.211131 234.655906,309.655906 C234.211131,310.10065 233.76499,310.374196 233.238919,310.578642 C232.73006,310.776387 232.148512,310.911636 231.297005,310.950473 C230.550381,310.98454 230.24847,310.995849 228.729149,310.998144 L227.268103,310.998144 C225.748761,310.995849 225.44685,310.98454 224.700226,310.950473 C223.848719,310.911636 223.26717,310.776387 222.758311,310.578642 C222.232241,310.374196 221.7861,310.10065 221.341325,309.655906 C220.896581,309.211131 220.623035,308.76499 220.418621,308.238919 C220.220844,307.73006 220.085595,307.148512 220.046758,306.297005 C220.011069,305.514827 220.000357,305.220724 219.998819,303.503643 L219.998819,302.493613 C220.000357,300.776506 220.011069,300.482404 220.046758,299.700226 C220.085595,298.848719 220.220844,298.26717 220.418621,297.758311 C220.623035,297.232241 220.896581,296.7861 221.341325,296.341325 C221.7861,295.896581 222.232241,295.623035 222.758311,295.418621 C223.26717,295.220844 223.848719,295.085595 224.700226,295.046758 C225.482404,295.011069 225.776506,295.000357 227.493613,294.998819 L228.503643,294.998819 Z M227.94761,299.100656 C225.76662,299.100656 223.998615,300.868661 223.998615,303.049651 C223.998615,305.230611 225.76662,306.998615 227.94761,306.998615 C230.12857,306.998615 231.896575,305.230611 231.896575,303.049651 C231.896575,300.868661 230.12857,299.100656 227.94761,299.100656 Z M227.94761,300.486261 C229.363314,300.486261 230.510969,301.633917 230.510969,303.049651 C230.510969,304.465355 229.363314,305.61301 227.94761,305.61301 C226.531876,305.61301 225.384221,304.465355 225.384221,303.049651 C225.384221,301.633917 226.531876,300.486261 227.94761,300.486261 Z M232.080233,297.998615 C231.573058,297.998615 231.161881,298.409793 231.161881,298.916998 C231.161881,299.424203 231.573058,299.83535 232.080233,299.83535 C232.587438,299.83535 232.998615,299.424203 232.998615,298.916998 C232.998615,298.409793 232.587438,297.998615 232.080233,297.998615 Z" id="instagram"></path>
        </g>
    </g>
</svg>