<?xml version="1.0" encoding="UTF-8"?>
<svg width="394px" height="76px" viewBox="0 0 394 76" version="1.1" xmlns="http://www.w3.org/2000/svg" xmlns:xlink="http://www.w3.org/1999/xlink">
    <!-- Generator: Sketch 58 (84663) - https://sketch.com -->
    <title>Wordmark White</title>
    <desc>Created with Sketch.</desc>
    <g id="Webpage" stroke="none" stroke-width="1" fill="none" fill-rule="evenodd">
        <g id="Desktop-Copy" transform="translate(-312.000000, -37.000000)">
            <g id="Wordmark-White" transform="translate(312.000000, 37.000000)">
                <path d="M0.90705036,63.65 L14.6639808,63.65 C17.687482,63.65 19.8795204,61.446 19.8795204,58.406 L19.8795204,39.026 C19.8795204,35.986 17.687482,33.782 14.6639808,33.782 L9.8263789,33.782 C9.52402878,33.782 9.29726619,33.402 9.29726619,33.098 L9.29726619,20.558 C9.29726619,20.102 9.52402878,19.722 9.8263789,19.722 L19.4259952,19.722 L19.4259952,12.35 L6.0470024,12.35 C3.0235012,12.35 0.90705036,14.554 0.90705036,17.594 L0.90705036,36.518 C0.90705036,39.558 3.0235012,41.762 6.0470024,41.762 L10.8090168,41.762 C11.262542,41.762 11.413717,42.066 11.413717,42.446 L11.413717,55.29 C11.413717,55.67 11.262542,55.974 10.8090168,55.974 L0.90705036,55.974 L0.90705036,63.65 Z M34.1655635,41.686 L34.1655635,20.938 C34.1655635,20.254 34.6190887,19.798 35.223789,19.798 L39.1543405,19.798 C39.7590408,19.798 40.2125659,20.254 40.2125659,20.938 L40.2125659,41.686 L34.1655635,41.686 Z M48.6027818,17.594 C48.6027818,14.554 46.4863309,12.35 43.3872422,12.35 L30.9152998,12.35 C27.8917986,12.35 25.7753477,14.554 25.7753477,17.594 L25.7753477,63.65 L34.1655635,63.65 L34.1655635,48.754 L40.2125659,48.754 L40.2125659,63.65 L48.6027818,63.65 L48.6027818,17.594 Z M72.6396163,29.526 L77.5528058,63.65 L84.6580336,63.65 L91.2341487,12.35 L83.6753957,12.35 L80.5007194,45.79 L76.1922302,12.35 L69.0870024,12.35 L65.0052758,45.562 L61.9061871,12.35 L53.8939089,12.35 L60.5456115,63.65 L67.7264269,63.65 L72.6396163,29.526 Z M96.978801,12.35 L96.978801,63.65 L113.456882,63.65 C117.689784,63.65 120.486523,60.838 120.486523,56.582 L120.486523,19.418 C120.486523,15.162 117.689784,12.35 113.456882,12.35 L96.978801,12.35 Z M111.945132,55.062 C111.945132,55.746 111.491607,56.278 110.735731,56.278 L105.520192,56.278 L105.520192,19.722 L110.735731,19.722 C111.491607,19.722 111.945132,20.254 111.945132,20.938 L111.945132,55.062 Z M128.574388,12.35 L128.574388,57.418 C128.574388,61.142 130.993189,63.65 134.772566,63.65 L145.505995,63.65 C149.285372,63.65 151.77976,61.142 151.77976,57.418 L151.77976,12.35 L143.162782,12.35 L143.162782,55.822 C143.162782,56.202 142.860432,56.506 142.709257,56.506 L137.569305,56.506 C137.418129,56.506 137.115779,56.202 137.115779,55.822 L137.115779,12.35 L128.574388,12.35 Z M158.355875,63.65 L172.112806,63.65 C175.136307,63.65 177.328345,61.446 177.328345,58.406 L177.328345,39.026 C177.328345,35.986 175.136307,33.782 172.112806,33.782 L167.275204,33.782 C166.972854,33.782 166.746091,33.402 166.746091,33.098 L166.746091,20.558 C166.746091,20.102 166.972854,19.722 167.275204,19.722 L176.87482,19.722 L176.87482,12.35 L163.495827,12.35 C160.472326,12.35 158.355875,14.554 158.355875,17.594 L158.355875,36.518 C158.355875,39.558 160.472326,41.762 163.495827,41.762 L168.257842,41.762 C168.711367,41.762 168.862542,42.066 168.862542,42.446 L168.862542,55.29 C168.862542,55.67 168.711367,55.974 168.257842,55.974 L158.355875,55.974 L158.355875,63.65 Z M200.987242,19.722 L194.562302,19.722 L194.562302,63.65 L186.096499,63.65 L186.096499,19.722 L179.671559,19.722 L179.671559,12.35 L200.987242,12.35 L200.987242,19.722 Z" id="Sawdust" fill="#AB0015" fill-rule="nonzero"></path>
                <path d="M258.131415,63.65 L271.208058,63.65 L271.208058,45.942 L287.837314,45.942 L287.837314,34.998 L271.208058,34.998 L271.208058,23.37 L290.482878,23.37 L290.482878,12.35 L258.131415,12.35 L258.131415,63.65 Z M301.972182,12.35 L301.972182,57.798 C301.972182,61.142 304.693333,63.65 307.792422,63.65 L333.643357,63.65 C336.818034,63.65 339.38801,61.142 339.38801,57.798 L339.38801,12.35 L326.235779,12.35 L326.235779,51.87 C326.235779,52.25 325.857842,52.554 325.404317,52.554 L315.8047,52.554 C315.50235,52.554 315.124412,52.25 315.124412,51.87 L315.124412,12.35 L301.972182,12.35 Z M380.885564,63.65 L365.99482,35.454 L365.99482,63.65 L353.900815,63.65 L353.900815,12.35 L365.99482,12.35 L381.263501,40.622 L381.263501,12.35 L393.357506,12.35 L393.357506,63.65 L380.885564,63.65 Z" id="FUN" fill="#AB0015" fill-rule="nonzero"></path>
                <path d="M243.533573,35.8625 C243.628058,36.2425019 243.6753,36.6066649 243.6753,36.955 C243.6753,38.0633389 243.257998,39.1083284 242.423381,40.09 C241.588765,41.0716716 240.541573,41.7683313 239.281775,42.18 C238.74636,42.3383341 238.11647,42.4175 237.392086,42.4175 C237.108632,45.1091801 236.313396,47.4762398 235.006355,49.51875 C233.699314,51.5612602 231.990738,53.1445777 229.880576,54.26875 C227.770413,55.3929223 225.408326,55.955 222.794245,55.955 C219.802223,55.955 217.44801,55.1950076 215.731535,53.675 C214.015059,52.155 213.156835,50.0966796 213.156835,47.5 C213.156835,45.7583246 213.542642,44.0404251 214.314269,42.34625 C215.085895,40.6520749 216.140961,39.1875062 217.479496,37.9525 C218.818032,36.7174938 220.2904,35.8625024 221.896643,35.3875 L221.896643,35.1975 C220.920299,34.3741626 220.22742,33.5033379 219.817986,32.585 C219.408551,31.6666621 219.203837,30.5266735 219.203837,29.165 C219.203837,27.455 219.668381,25.8479242 220.597482,24.34375 C221.526583,22.8395758 222.786363,21.6362545 224.376859,20.73375 C225.967354,19.8312455 227.691677,19.38 229.54988,19.38 C231.691537,19.38 233.455229,19.9974938 234.841007,21.2325 C236.226786,22.4675062 236.919664,24.0349905 236.919664,25.935 C236.919664,27.2333398 236.588972,28.2941625 235.927578,29.1175 C235.266184,29.9408375 234.400085,30.3525 233.329257,30.3525 C232.132448,30.3525 231.171866,29.8616716 230.447482,28.88 C231.014391,28.5316649 231.478935,27.993337 231.841127,27.265 C232.203319,26.536663 232.384412,25.7608374 232.384412,24.9375 C232.384412,24.0508289 232.163951,23.3541692 231.723022,22.8475 C231.282092,22.3408308 230.683697,22.0875 229.927818,22.0875 C229.108949,22.0875 228.321587,22.4041635 227.565707,23.0375 C226.809828,23.6708365 226.203559,24.5179114 225.746882,25.57875 C225.290206,26.6395886 225.061871,27.7558275 225.061871,28.9275 C225.061871,30.5108412 225.487046,31.8487445 226.33741,32.94125 C227.187774,34.0337555 228.35307,34.7699981 229.833333,35.15 L229.833333,35.34 C228.35307,35.6250014 226.959439,36.3137445 225.652398,37.40625 C224.345357,38.4987555 223.306039,39.8287422 222.534412,41.39625 C221.762786,42.9637578 221.376978,44.555 221.376978,46.17 C221.376978,47.8166749 221.786407,49.0991621 222.605276,50.0175 C223.424145,50.9358379 224.557946,51.395 226.006715,51.395 C227.360998,51.395 228.699514,51.0150038 230.022302,50.255 C231.345091,49.4949962 232.478892,48.4341735 233.423741,47.0725 C234.36859,45.7108265 234.99848,44.1750085 235.313429,42.465 C234.62054,42.465 233.896167,42.5599991 233.140288,42.75 C231.408065,43.3200029 230.164029,44.1591611 229.408153,45.2675 L229.266427,45.315 C228.919982,44.8716644 228.636532,44.3016701 228.416067,43.605 C228.290087,43.2249981 228.227098,42.8133356 228.227098,42.37 C228.227098,41.2933279 228.605032,40.3275043 229.360911,39.4725 C230.11679,38.6174957 231.061625,38.0158351 232.195444,37.6675 C233.077303,37.4141654 234.28984,37.2241673 235.833094,37.0975 C236.872427,37.0341663 237.77002,36.9233341 238.525899,36.765 C239.250283,36.5433322 239.98253,36.1712526 240.722662,35.64875 C241.462793,35.1262474 242.021821,34.6116692 242.39976,34.105 L242.494245,34.105 C242.966669,34.58 243.313108,35.1658299 243.533573,35.8625 Z" id="&amp;" fill="#880010" fill-rule="nonzero"></path>
                <rect id="Rectangle-Copy-4" fill-opacity="0.5" fill="#880010" fill-rule="evenodd" x="0" y="0" width="394" height="4.75"></rect>
                <rect id="Rectangle-Copy-5" fill-opacity="0.5" fill="#880010" fill-rule="evenodd" x="0" y="71.25" width="394" height="4.75"></rect>
            </g>
        </g>
    </g>
</svg>