<?xml version="1.0" encoding="UTF-8"?>
<svg width="20px" height="16px" viewBox="0 0 20 16" version="1.1" xmlns="http://www.w3.org/2000/svg" xmlns:xlink="http://www.w3.org/1999/xlink">
    <!-- Generator: Sketch 58 (84663) - https://sketch.com -->
    <title>twitter</title>
    <desc>Created with Sketch.</desc>
    <g id="Webpage" stroke="none" stroke-width="1" fill="none" fill-rule="evenodd">
        <g id="Desktop-Copy" transform="translate(-218.000000, -260.000000)" fill="#404040" fill-rule="nonzero">
            <path d="M235.687139,264.50525 C235.687139,264.330395 235.687139,264.156327 235.675325,263.983048 C236.465978,263.411154 237.148483,262.703045 237.690884,261.891876 C236.953562,262.218588 236.171401,262.432846 235.37051,262.527497 C236.213866,262.022609 236.845061,261.228507 237.146628,260.292976 C236.353603,260.763553 235.486014,261.095192 234.581299,261.273582 C233.329024,259.942001 231.339171,259.616092 229.727535,260.478606 C228.115899,261.34112 227.283287,263.177553 227.696579,264.95814 C224.448288,264.795296 221.421863,263.261041 219.370485,260.737202 C218.298217,262.58314 218.845911,264.94464 220.62125,266.130141 C219.978336,266.111087 219.349439,265.937654 218.787635,265.62448 C218.787635,265.64102 218.787635,265.658348 218.787635,265.675676 C218.788162,267.598761 220.143748,269.255112 222.028755,269.635906 C221.433987,269.798112 220.809953,269.821823 220.204591,269.705218 C220.733841,271.350922 222.250533,272.478312 223.97894,272.510775 C222.548385,273.635071 220.781187,274.245407 218.961703,274.243573 C218.640272,274.242956 218.319153,274.223494 218,274.185288 C219.847506,275.370897 221.997181,275.999777 224.192389,275.99686 C231.622941,276 235.687139,269.843842 235.687139,264.50525 Z" id="twitter"></path>
        </g>
    </g>
</svg>