<?xml version="1.0" encoding="UTF-8"?>
<svg width="18px" height="12px" viewBox="0 0 18 12" version="1.1" xmlns="http://www.w3.org/2000/svg" xmlns:xlink="http://www.w3.org/1999/xlink">
    <!-- Generator: Sketch 58 (84663) - https://sketch.com -->
    <title>youtube</title>
    <desc>Created with Sketch.</desc>
    <g id="Webpage" stroke="none" stroke-width="1" fill="none" fill-rule="evenodd">
        <g id="Desktop-Copy" transform="translate(-219.000000, -332.000000)" fill="#404040">
            <path d="M226,341 L226,335 L231,338.000165 L226,341 Z M236.623805,333.873681 C236.416817,333.136232 235.806964,332.555275 235.032498,332.358142 C233.628769,332 227.999926,332 227.999926,332 C227.999926,332 222.371231,332 220.967502,332.358142 C220.193036,332.555275 219.583183,333.136232 219.376195,333.873681 C219,335.210715 219,337.999929 219,337.999929 C219,337.999929 219,340.789285 219.376195,342.126177 C219.583183,342.863627 220.193036,343.444725 220.967502,343.641717 C222.371231,344 227.999926,344 227.999926,344 C227.999926,344 233.628769,344 235.032498,343.641717 C235.806964,343.444725 236.416817,342.863627 236.623805,342.126177 C237,340.789285 237,337.999929 237,337.999929 C237,337.999929 237,335.210715 236.623805,333.873681 L236.623805,333.873681 Z" id="youtube"></path>
        </g>
    </g>
</svg>